<svg width="24" height="24" viewBox="0 0 24 24" fill="none" xmlns="http://www.w3.org/2000/svg">
<g id="User verify">
<path id="Vector" d="M16.018 21.6004C15.7956 21.601 15.5753 21.556 15.3697 21.4678C15.1641 21.3796 14.9773 21.25 14.8199 21.0864L14.5002 20.7544C14.4512 20.7039 14.3849 20.6755 14.3158 20.6754H13.8694C13.4181 20.6746 12.9854 20.4875 12.6663 20.1549C12.3473 19.8224 12.1679 19.3716 12.1674 18.9014V18.4334C12.1678 18.3963 12.1611 18.3595 12.1475 18.3251C12.134 18.2908 12.1139 18.2596 12.0886 18.2334L11.7796 17.9114C11.4611 17.5806 11.2814 17.1318 11.2798 16.6633C11.2782 16.1948 11.4548 15.7447 11.7708 15.4114L11.7997 15.3824L12.0877 15.0824C12.1363 15.0314 12.1636 14.9624 12.1635 14.8904V14.4254C12.1642 13.9555 12.3437 13.5051 12.6625 13.1726C12.9813 12.8402 13.4136 12.6528 13.8647 12.6514H14.313C14.3822 12.6514 14.4488 12.623 14.4983 12.5724L14.8083 12.2494C15.1268 11.9163 15.5591 11.7283 16.0104 11.7266C16.4617 11.7249 16.8952 11.9097 17.216 12.2404L17.5337 12.5714C17.5578 12.5968 17.5865 12.617 17.6182 12.6307C17.6499 12.6445 17.6838 12.6515 17.7181 12.6514H18.1664C18.6179 12.652 19.0508 12.839 19.3701 13.1716C19.6894 13.5042 19.8689 13.9551 19.8694 14.4254V14.8914C19.8698 14.9631 19.8966 15.0318 19.9443 15.0834L20.2573 15.4094C20.5761 15.7415 20.7558 16.1916 20.7568 16.6612C20.7579 17.1308 20.5804 17.5818 20.2631 17.9154L19.9433 18.2484C19.896 18.2989 19.8698 18.3669 19.8705 18.4374V18.9054C19.8699 19.3754 19.6904 19.826 19.3713 20.1582C19.0521 20.4904 18.6195 20.6772 18.1683 20.6774H17.7172C17.6833 20.6773 17.6498 20.6841 17.6185 20.6975C17.5872 20.7109 17.5588 20.7306 17.5348 20.7554L17.2188 21.0824C17.0623 21.2476 16.8756 21.3788 16.67 21.4684C16.4644 21.558 16.2438 21.6043 16.0208 21.6044L16.018 21.6004ZM12.7808 16.4804C12.7375 16.533 12.7149 16.6007 12.7176 16.6699C12.7203 16.7391 12.748 16.8047 12.7953 16.8534L13.1101 17.1824C13.4283 17.5144 13.6071 17.9643 13.6074 18.4334V18.9014C13.6074 18.9739 13.635 19.0435 13.6841 19.0948C13.7332 19.1462 13.7998 19.1752 13.8694 19.1754H14.3158C14.7659 19.1763 15.1975 19.3621 15.5168 19.6924L15.8288 20.0164C15.8538 20.043 15.8838 20.064 15.9168 20.0782C15.9497 20.0925 15.9851 20.0997 16.0208 20.0994C16.0549 20.0997 16.0888 20.0927 16.1203 20.079C16.1519 20.0652 16.1803 20.045 16.2041 20.0194L16.5219 19.6894C16.6792 19.525 16.8663 19.3948 17.0723 19.3062C17.2784 19.2176 17.4991 19.1725 17.7219 19.1734H18.1722C18.2068 19.1736 18.241 19.1666 18.273 19.1528C18.305 19.1391 18.334 19.1189 18.3584 19.0934C18.4074 19.0418 18.4351 18.9721 18.4353 18.8994V18.4334C18.4342 17.9654 18.6117 17.5162 18.9286 17.1844L19.2445 16.8554C19.269 16.8299 19.2885 16.7996 19.3017 16.7662C19.315 16.7328 19.3218 16.6971 19.3218 16.6609C19.3218 16.6248 19.315 16.589 19.3017 16.5557C19.2885 16.5223 19.269 16.492 19.2445 16.4664L18.9306 16.1384C18.7726 15.9744 18.6474 15.7794 18.5623 15.5647C18.4771 15.3499 18.4335 15.1198 18.4342 14.8874V14.4214C18.4342 14.3488 18.4065 14.2791 18.3572 14.2277C18.3079 14.1763 18.2409 14.1474 18.1712 14.1474H17.7229C17.4997 14.1481 17.2787 14.1027 17.0725 14.0138C16.8664 13.9249 16.6792 13.7942 16.5219 13.6294L16.21 13.3064L16.1956 13.2924C16.1474 13.2471 16.0848 13.2221 16.0199 13.2224C15.9854 13.2223 15.9513 13.2294 15.9195 13.2431C15.8877 13.2568 15.8589 13.277 15.8346 13.3024L15.5216 13.6294C15.2016 13.9601 14.7695 14.1462 14.3187 14.1474H13.8713C13.8017 14.1477 13.7351 14.1767 13.6859 14.228C13.6369 14.2794 13.6092 14.3489 13.6092 14.4214V14.8874C13.6096 15.1196 13.566 15.3495 13.4808 15.564C13.3956 15.7785 13.2706 15.9734 13.113 16.1374L12.8009 16.4634L12.7808 16.4804ZM15.5629 18.3904C15.4682 18.3904 15.3743 18.3708 15.2868 18.3329C15.1994 18.2949 15.12 18.2394 15.0532 18.1694L14.17 17.2474C14.0389 17.1058 13.9666 16.9162 13.9685 16.7196C13.9704 16.5229 14.0464 16.3349 14.1801 16.1961C14.3138 16.0572 14.4945 15.9786 14.6833 15.9772C14.8721 15.9757 15.0538 16.0516 15.1894 16.1884L15.5638 16.5784L16.8753 15.2124C17.011 15.0758 17.1928 15.0001 17.3816 15.0017C17.5704 15.0033 17.751 15.0821 17.8845 15.2211C18.018 15.3601 18.0939 15.5481 18.0956 15.7448C18.0973 15.9414 18.0249 16.1309 17.8937 16.2724L16.0698 18.1724C15.935 18.3118 15.7528 18.3902 15.5629 18.3904Z" fill="#CD66FF"/>
<path id="Vector_2" d="M3.77273 19.7703C3.58178 19.7703 3.39864 19.6913 3.26361 19.5506C3.12858 19.41 3.05273 19.2192 3.05273 19.0203C3.05273 16.3073 5.17818 13.5703 9.9273 13.5703C10.1182 13.5703 10.3014 13.6493 10.4364 13.79C10.5715 13.9306 10.6473 14.1214 10.6473 14.3203C10.6473 14.5192 10.5715 14.71 10.4364 14.8506C10.3014 14.9913 10.1182 15.0703 9.9273 15.0703C5.91546 15.0703 4.49273 17.1983 4.49273 19.0203C4.49273 19.2192 4.41688 19.41 4.28185 19.5506C4.14683 19.6913 3.96369 19.7703 3.77273 19.7703Z" fill="#CD66FF"/>
<path id="Vector_3" d="M9.92757 12.0806C9.00759 12.0806 8.1083 11.7964 7.3434 11.264C6.5785 10.7316 5.98237 9.97486 5.63035 9.0895C5.27834 8.20413 5.18626 7.22991 5.36581 6.29004C5.54534 5.35018 5.9884 4.48688 6.63899 3.80934C7.28956 3.13179 8.11845 2.67043 9.02077 2.4836C9.92306 2.29677 10.8583 2.39286 11.7082 2.75972C12.5581 3.12658 13.2844 3.74773 13.7954 4.54461C14.3063 5.3415 14.579 6.27834 14.5788 7.23663C14.5772 8.52102 14.0867 9.75234 13.2147 10.6605C12.3427 11.5686 11.1606 12.0793 9.92757 12.0806ZM9.92757 3.89063C9.29248 3.89063 8.67167 4.08678 8.14361 4.45429C7.61556 4.8218 7.20398 5.34416 6.9609 5.95532C6.71782 6.56648 6.6542 7.239 6.77802 7.88784C6.90185 8.53668 7.20758 9.1327 7.65659 9.60054C8.10558 10.0684 8.67764 10.3871 9.30049 10.5162C9.92335 10.6454 10.569 10.5793 11.1558 10.3263C11.7425 10.0733 12.2441 9.64469 12.597 9.09474C12.95 8.54479 13.1386 7.89817 13.1388 7.23663C13.1375 6.34998 12.7987 5.50004 12.1968 4.87317C11.5948 4.24631 10.7787 3.89369 9.92757 3.89263V3.89063Z" fill="#CD66FF"/>
</g>
</svg>
