<svg width="24" height="24" viewBox="0 0 24 24" fill="none" xmlns="http://www.w3.org/2000/svg">
<g id="Media / Icon/24px/Unfilled/heart">
<path id="Vector" d="M10.0638 21.7509C9.47444 21.7344 8.91551 21.4751 8.50949 21.0299C8.40293 20.9209 8.25604 20.7679 8.11108 20.6169L7.85093 20.8879C7.47179 21.265 6.96775 21.4753 6.44357 21.4753C5.91939 21.4753 5.41535 21.265 5.03621 20.8879L3.22949 19.0059C3.04443 18.8135 2.89758 18.585 2.7974 18.3335C2.69721 18.0819 2.64567 17.8123 2.64567 17.5399C2.64567 17.2676 2.69721 16.9979 2.7974 16.7463C2.89758 16.4948 3.04443 16.2663 3.22949 16.0739L3.48869 15.8019C3.32453 15.6309 3.15557 15.4549 3.03845 15.3289C2.83889 15.1301 2.6796 14.8917 2.56994 14.6277C2.46028 14.3637 2.40249 14.0795 2.39999 13.7918C2.39748 13.5042 2.4503 13.2189 2.55534 12.9529C2.66039 12.6869 2.81552 12.4455 3.01158 12.2429C3.36966 11.8429 3.74117 11.4639 4.11749 11.0869C4.52703 10.6813 5.07198 10.4576 5.63706 10.463C6.20212 10.4684 6.74303 10.7026 7.14534 11.1159C8.9655 13.0059 10.7828 14.8993 12.5972 16.7959C12.9927 17.2081 13.221 17.763 13.2346 18.3457C13.2482 18.9284 13.0461 19.4942 12.6702 19.9259C12.3054 20.3439 11.9204 20.7449 11.5239 21.1179C11.1315 21.5135 10.6097 21.7397 10.0638 21.7509ZM8.11399 18.8049C8.20869 18.805 8.30242 18.8247 8.38976 18.8628C8.4771 18.9009 8.55631 18.9567 8.62278 19.0269C8.62278 19.0269 9.22566 19.6599 9.51942 19.9609C9.57724 20.0463 9.65308 20.1168 9.74121 20.1669C9.82924 20.217 9.92717 20.2453 10.0274 20.2498C10.1277 20.2542 10.2275 20.2346 10.3194 20.1925C10.4113 20.1504 10.4926 20.0869 10.5572 20.0069C10.9191 19.6659 11.2715 19.2989 11.6036 18.9179C11.7311 18.7711 11.7995 18.5789 11.7947 18.381C11.7899 18.1831 11.7122 17.9948 11.5777 17.8549C9.76329 15.9596 7.94693 14.0672 6.12869 12.1779C5.99379 12.0398 5.81267 11.9617 5.62355 11.96C5.43443 11.9584 5.25207 12.0332 5.11492 12.1689C4.75684 12.5279 4.40071 12.8939 4.05895 13.2689C3.98936 13.3325 3.93387 13.4111 3.89629 13.4992C3.85873 13.5874 3.83997 13.683 3.84133 13.7794C3.8427 13.8758 3.86415 13.9708 3.9042 14.0577C3.94426 14.1446 4.00197 14.2215 4.07333 14.2829C4.36901 14.6009 5.01414 15.2629 5.01414 15.2629L5.04678 15.2999L6.86213 17.1919C6.93288 17.2606 6.98963 17.3434 7.02898 17.4354C7.06833 17.5274 7.08947 17.6267 7.09118 17.7274C7.09288 17.8281 7.07509 17.9281 7.03888 18.0215C7.00267 18.1149 6.94878 18.1997 6.88041 18.271C6.81204 18.3422 6.7306 18.3983 6.64094 18.436C6.55129 18.4738 6.45529 18.4923 6.3586 18.4905C6.26193 18.4887 6.16659 18.4667 6.07827 18.4257C5.98995 18.3847 5.91045 18.3256 5.84453 18.2519L4.50725 16.8579L4.24806 17.1279C4.1966 17.1812 4.15576 17.2445 4.12788 17.3143C4.10001 17.384 4.08567 17.4588 4.08567 17.5344C4.08567 17.61 4.10001 17.6848 4.12788 17.7546C4.15576 17.8243 4.1966 17.8877 4.24806 17.9409L6.05381 19.8229C6.15854 19.9275 6.29802 19.9859 6.4431 19.9859C6.58818 19.9859 6.72764 19.9275 6.83236 19.8229L7.60038 19.0229C7.66791 18.953 7.74807 18.8978 7.83623 18.8603C7.92438 18.8229 8.0188 18.8041 8.11399 18.8049Z" fill="#CD66FF"/>
<path id="Vector_2" d="M17.9057 13.5348C17.6194 13.535 17.3358 13.4764 17.0713 13.3623C16.8067 13.2482 16.5664 13.0808 16.364 12.8698C14.5438 10.9798 12.7265 9.08681 10.9121 7.19081C10.5159 6.77182 10.2915 6.20881 10.2862 5.62067C10.281 5.03253 10.4955 4.46532 10.8843 4.03881C11.2453 3.64581 11.6139 3.25781 11.9931 2.88481C12.1877 2.68061 12.4196 2.51907 12.6751 2.40972C12.9306 2.30038 13.2045 2.24544 13.4807 2.24814C13.7569 2.25084 14.0298 2.31114 14.2833 2.42546C14.5368 2.53979 14.7658 2.70584 14.9566 2.91381C15.0766 3.03481 15.2446 3.21381 15.4117 3.38181L15.6718 3.1118C15.8562 2.91835 16.0756 2.76498 16.3174 2.66061C16.5592 2.55624 16.8184 2.50294 17.0801 2.50381C17.3416 2.50304 17.6005 2.55639 17.8419 2.66076C18.0833 2.76514 18.3025 2.91846 18.4865 3.1118L20.2923 4.99381C20.4773 5.18633 20.624 5.41494 20.7241 5.66657C20.8242 5.9182 20.8758 6.18792 20.8758 6.46031C20.8758 6.7327 20.8242 7.00242 20.7241 7.25405C20.624 7.50568 20.4773 7.73429 20.2923 7.92681L20.0321 8.1978C20.1771 8.3478 20.3201 8.4978 20.4277 8.6118C20.6383 8.80782 20.8084 9.04655 20.9273 9.31338C21.0464 9.58021 21.112 9.86953 21.1199 10.1636C21.1279 10.4578 21.0783 10.7505 20.9739 11.0239C20.8696 11.2973 20.7128 11.5457 20.5131 11.7538C20.156 12.1648 19.771 12.5658 19.3688 12.9458C18.9684 13.3247 18.4467 13.5347 17.9057 13.5348ZM13.459 3.74981C13.2769 3.75736 13.1048 3.8384 12.979 3.9758C12.619 4.3318 12.2667 4.70081 11.923 5.07581C11.7928 5.2185 11.7209 5.40829 11.7226 5.60513C11.7242 5.80197 11.7992 5.99045 11.9317 6.13081C13.7461 8.02481 15.5624 9.9168 17.3806 11.8068C17.5154 11.9463 17.6963 12.0268 17.8862 12.0318C18.0761 12.0369 18.2607 11.966 18.4021 11.8338C18.7697 11.4858 19.1211 11.1198 19.4475 10.7448C19.5244 10.6774 19.5854 10.5925 19.6257 10.4966C19.6661 10.4008 19.6848 10.2966 19.6803 10.192C19.6759 10.0874 19.6484 9.98531 19.6 9.89356C19.5517 9.8018 19.4837 9.72285 19.4014 9.66281C19.1134 9.35681 18.5077 8.73081 18.5067 8.73081C18.4395 8.66112 18.3862 8.5783 18.3498 8.48709C18.3135 8.39588 18.2946 8.29808 18.2946 8.19931C18.2946 8.10054 18.3135 8.00274 18.3498 7.91153C18.3862 7.82032 18.4395 7.73749 18.5067 7.6678L19.2747 6.86781C19.3259 6.81459 19.3665 6.75138 19.3941 6.6818C19.4219 6.61222 19.4362 6.53763 19.4362 6.46231C19.4362 6.38698 19.4219 6.3124 19.3941 6.24282C19.3665 6.17324 19.3259 6.11002 19.2747 6.0568L17.468 4.17481C17.417 4.1215 17.3564 4.07921 17.2897 4.05038C17.223 4.02155 17.1514 4.00675 17.0792 4.00681C17.0068 4.00656 16.935 4.02128 16.8681 4.05011C16.8013 4.07895 16.7405 4.12134 16.6894 4.17481L16.4293 4.4458L17.7675 5.83981C17.8987 5.9812 17.9714 6.17061 17.9699 6.36726C17.9682 6.56391 17.8927 6.75206 17.7592 6.89118C17.6258 7.0303 17.4452 7.10926 17.2565 7.11106C17.0677 7.11287 16.8857 7.03736 16.7499 6.90081L14.9365 5.01281L14.8971 4.9748C14.8971 4.9748 14.2597 4.30281 13.9544 3.99481C13.8271 3.84842 13.6484 3.76036 13.459 3.74981Z" fill="#CD66FF"/>
<path id="Vector_3" d="M8.18334 13.9184C8.04104 13.918 7.90201 13.8738 7.78382 13.7912C7.66562 13.7087 7.57353 13.5915 7.51913 13.4545C7.46471 13.3176 7.45045 13.1669 7.4781 13.0215C7.50576 12.8761 7.57411 12.7424 7.67454 12.6374L12.3411 7.77443C12.4761 7.63373 12.6593 7.55469 12.8504 7.55469C13.0414 7.55469 13.2246 7.63373 13.3596 7.77443C13.4947 7.91513 13.5706 8.10596 13.5706 8.30493C13.5706 8.50391 13.4947 8.69473 13.3596 8.83543L8.68924 13.6984C8.55517 13.8386 8.37328 13.9177 8.18334 13.9184Z" fill="#CD66FF"/>
<path id="Vector_4" d="M10.6506 16.4859C10.5084 16.4855 10.3695 16.4413 10.2514 16.3589C10.1333 16.2765 10.0412 16.1595 9.98666 16.0227C9.93223 15.8859 9.91773 15.7353 9.94519 15.59C9.97264 15.4447 10.0407 15.311 10.1408 15.2059L10.1495 15.1969L10.1706 15.1729L14.84 10.3099C14.9759 10.1734 15.1578 10.0978 15.3466 10.0996C15.5354 10.1014 15.7159 10.1804 15.8494 10.3195C15.9828 10.4587 16.0585 10.6468 16.06 10.8435C16.0615 11.0401 15.9889 11.2295 15.8576 11.3709L15.8423 11.3869L15.8269 11.4029L11.1604 16.2659C11.0935 16.3358 11.0141 16.3912 10.9266 16.4289C10.8391 16.4667 10.7453 16.4861 10.6506 16.4859Z" fill="#CD66FF"/>
</g>
</svg>
