<svg width="24" height="24" viewBox="0 0 24 24" fill="none" xmlns="http://www.w3.org/2000/svg">
<g id="Apple">
<path id="Vector" d="M8.89169 9.27312C9.06231 9.643 8.9095 10.0929 8.55044 10.2731C7.93966 10.5729 7.48496 11.2231 7.39309 11.913C7.33872 12.3229 6.97543 12.6129 6.58169 12.5531C6.18747 12.5031 5.91231 12.123 5.96622 11.713C6.12465 10.5128 6.88403 9.43303 7.93215 8.91301C8.29122 8.73308 8.72106 8.893 8.89169 9.27312Z" fill="#CD66FF"/>
<path id="Vector_2" fill-rule="evenodd" clip-rule="evenodd" d="M10.9881 6.44351C10.9122 5.90225 10.7499 5.4025 10.4902 4.98306C10.1265 4.40299 9.5387 3.93301 8.58246 3.74307C8.19199 3.66299 7.93652 3.26285 8.01246 2.86295C8.08792 2.45303 8.46621 2.18301 8.85621 2.26309C10.1781 2.53287 11.1104 3.23306 11.6969 4.16299C12.1323 4.86148 12.3577 5.65811 12.4413 6.45206C12.9236 6.4086 13.4059 6.319 13.8887 6.18301C14.5337 6.00308 16.0848 5.74307 17.5632 6.43301C19.1252 7.16299 20.4029 8.84293 20.5961 12.1029L20.5974 12.143C20.6209 15.203 19.6848 17.5128 18.6062 19.0929C18.2842 19.5607 17.9491 19.9638 17.6213 20.3019C17.4024 20.5277 17.1873 20.7248 16.982 20.893C16.726 21.1029 16.4785 21.2731 16.2522 21.403C16.0454 21.5102 15.8068 21.6171 15.572 21.6505C14.6374 21.8644 13.787 21.6982 13.1228 21.5131C12.8054 21.423 12.4534 21.2929 12.2374 21.2331C11.9757 21.153 11.8361 21.123 11.7597 21.123C11.6758 21.123 11.5318 21.153 11.2735 21.2231C11.1728 21.2519 11.0377 21.2943 10.8901 21.341C10.7307 21.3913 10.5569 21.4462 10.3961 21.4931C9.72762 21.6713 8.87589 21.8395 7.9309 21.6391C7.70168 21.6049 7.4687 21.5085 7.26387 21.393C7.03699 21.2731 6.78949 21.1029 6.53355 20.893C6.02027 20.4731 5.44605 19.873 4.90933 19.0829C3.83168 17.5128 2.89792 15.203 2.92184 12.143L2.92324 12.1029C3.11636 8.84293 4.39465 7.16299 5.95652 6.43301C7.43496 5.74307 8.98558 6.00308 9.63057 6.18301C10.0839 6.31046 10.5357 6.39737 10.9881 6.44351ZM15.3836 20.1562L15.3896 20.1547C15.3915 20.1542 15.3934 20.1537 15.3953 20.153C15.3723 20.163 15.4299 20.153 15.5805 20.0729C15.7164 19.9928 15.8912 19.883 16.0923 19.713C16.3862 19.4721 16.7213 19.1457 17.0593 18.7226C17.1845 18.5661 17.3101 18.3964 17.4343 18.213C18.347 16.8874 19.173 14.8864 19.1574 12.1803C18.9873 9.34976 17.9374 8.25235 16.975 7.80313C15.9283 7.3129 14.7582 7.49307 14.2632 7.63297C12.5964 8.09293 10.9224 8.09293 9.25558 7.63297C8.76106 7.49307 7.59152 7.3129 6.5448 7.80313C5.5834 8.25186 4.53387 9.34732 4.36184 12.1718C4.34449 14.8822 5.16902 16.8861 6.08121 18.213C6.32168 18.5639 6.56777 18.8678 6.80543 19.1254C7.02199 19.36 7.23152 19.5558 7.42324 19.713C7.6248 19.873 7.80011 19.9928 7.93746 20.0729C8.03777 20.1261 8.09824 20.1483 8.12262 20.1571C8.13527 20.1618 8.13808 20.163 8.13246 20.163H8.18917C8.82668 20.3029 9.43605 20.203 10.0267 20.0431C10.351 19.953 10.5737 19.873 10.8836 19.7831C11.1447 19.703 11.4582 19.623 11.7597 19.623C12.0676 19.623 12.3878 19.713 12.6489 19.7931C12.7871 19.8336 12.9104 19.8742 13.0333 19.9147C13.1828 19.964 13.3318 20.0136 13.5062 20.0631C14.0959 20.2331 14.6912 20.3329 15.3034 20.173C15.3189 20.1679 15.3343 20.1654 15.3498 20.1628C15.3611 20.161 15.3723 20.1591 15.3836 20.1562Z" fill="#CD66FF"/>
</g>
</svg>
