<svg width="24" height="24" viewBox="0 0 24 24" fill="none" xmlns="http://www.w3.org/2000/svg">
<g id="bar chart alt Vertical">
<path id="Vector" fill-rule="evenodd" clip-rule="evenodd" d="M4.3204 12.3525C4.18746 12.3525 4.08014 12.4599 4.08014 12.5928V18.3534C4.08014 18.4859 4.18793 18.5937 4.3204 18.5937H8.40075V12.3525H4.3204ZM2.64014 12.5928C2.64014 11.6646 3.39218 10.9125 4.3204 10.9125H9.12075C9.51839 10.9125 9.84071 11.2349 9.84071 11.6325V19.3137C9.84071 19.7113 9.51839 20.0337 9.12075 20.0337H4.3204C3.39172 20.0337 2.64014 19.2802 2.64014 18.3534V12.5928Z" fill="#CD66FF"/>
<path id="Vector_2" fill-rule="evenodd" clip-rule="evenodd" d="M14.1592 7.79343C14.1592 7.39578 14.4815 7.07343 14.8792 7.07343H19.6796C20.6078 7.07343 21.3599 7.82547 21.3599 8.75368V18.3544C21.3599 19.2822 20.6073 20.0338 19.6796 20.0338H14.8792C14.4815 20.0338 14.1592 19.7114 14.1592 19.3138V7.79343ZM15.5992 8.51343V18.5938H19.6796C19.8129 18.5938 19.9199 18.4859 19.9199 18.3544V8.75368C19.9199 8.62076 19.8125 8.51343 19.6796 8.51343H15.5992Z" fill="#CD66FF"/>
<path id="Vector_3" fill-rule="evenodd" clip-rule="evenodd" d="M8.3999 4.91372C8.3999 3.9855 9.15195 3.23346 10.0802 3.23346H13.9203C14.8485 3.23346 15.6005 3.9855 15.6005 4.91372V19.3147C15.6005 19.7125 15.2782 20.0347 14.8805 20.0347H9.1199C8.72226 20.0347 8.3999 19.7125 8.3999 19.3147V4.91372ZM10.0802 4.67346C9.94723 4.67346 9.8399 4.7808 9.8399 4.91372V18.5947H14.1605V4.91372C14.1605 4.7808 14.0531 4.67346 13.9203 4.67346H10.0802Z" fill="#CD66FF"/>
</g>
</svg>
