<svg width="32" height="32" viewBox="0 0 32 32" fill="none" xmlns="http://www.w3.org/2000/svg">
<g id="Logomark">
<g id="Group">
<path id="Vector" d="M31.5165 15.8835C31.5165 22.4471 26.196 27.767 19.6314 27.767H11.8857V4H19.6314C26.196 4 31.5165 9.32181 31.5165 15.8835Z" fill="url(#paint0_linear_76_266)"/>
<path id="Vector_2" d="M16.569 24.5604C16.676 25.6656 17.0227 26.6876 17.5535 27.5848C17.5872 27.6462 17.6248 27.7056 17.6625 27.767H11.8857V16.543H23.1712C19.1323 16.9352 16.1768 20.524 16.569 24.5604Z" fill="#6400E6"/>
<path id="Vector_3" d="M23.7701 15.8865C23.7701 16.2286 23.5099 16.5124 23.1695 16.5466C19.4005 16.9247 16.1508 19.0637 14.2541 22.1284C13.3319 23.6207 12.7289 25.3339 12.5457 27.169C12.5117 27.5092 12.2279 27.7691 11.886 27.7691C11.5439 27.7691 11.2602 27.509 11.2261 27.1687C10.6651 21.5651 6.2066 17.1073 0.600515 16.5464C0.260185 16.5124 0 16.2286 0 15.8866C0 15.5447 0.260201 15.2608 0.600544 15.2268C6.20842 14.666 10.6653 10.2097 11.2262 4.60257C11.2602 4.26227 11.544 4.00211 11.886 4.00211C12.228 4.00211 12.5119 4.26226 12.5459 4.60256C13.1068 10.208 17.5636 14.6659 23.1696 15.2268C23.5099 15.2608 23.7701 15.5445 23.7701 15.8865Z" fill="url(#paint1_linear_76_266)"/>
</g>
</g>
<defs>
<linearGradient id="paint0_linear_76_266" x1="21.7011" y1="27.767" x2="21.7011" y2="4" gradientUnits="userSpaceOnUse">
<stop stop-color="#6400E6"/>
<stop offset="0.00798" stop-color="#6501E6"/>
<stop offset="0.21029" stop-color="#8A25EF"/>
<stop offset="0.41265" stop-color="#A741F6"/>
<stop offset="0.61287" stop-color="#BC55FB"/>
<stop offset="0.80988" stop-color="#C861FE"/>
<stop offset="1" stop-color="#CD66FF"/>
</linearGradient>
<linearGradient id="paint1_linear_76_266" x1="5.80563" y1="21.9653" x2="17.9639" y2="9.8054" gradientUnits="userSpaceOnUse">
<stop stop-color="#CD66FF"/>
<stop offset="1" stop-color="#FFB3FF"/>
</linearGradient>
</defs>
</svg>
