<svg width="99" height="32" viewBox="0 0 99 32" fill="none" xmlns="http://www.w3.org/2000/svg">
<g id="Logotype">
<g id="Vector">
<path d="M3.94318 22.1989C7.48864 22.1989 9.59091 20.0057 9.59091 16.3693C9.59091 12.7443 7.48864 10.5625 4.02273 10.5625H0V22.1989H3.94318ZM2.10795 20.375V12.3864H3.90341C6.26705 12.3864 7.5 13.7045 7.5 16.3693C7.5 19.0455 6.26705 20.375 3.84091 20.375H2.10795Z" fill="#111827"/>
<path d="M15.2065 22.3693C17.2406 22.3693 18.6383 21.375 19.0019 19.858L17.0815 19.642C16.8031 20.3807 16.1213 20.767 15.2349 20.767C13.9053 20.767 13.0247 19.892 13.0076 18.3977H19.0872V17.767C19.0872 14.7045 17.2463 13.358 15.0985 13.358C12.5985 13.358 10.9678 15.1932 10.9678 17.8864C10.9678 20.625 12.5758 22.3693 15.2065 22.3693ZM13.0133 17.0114C13.0758 15.8977 13.8997 14.9602 15.1269 14.9602C16.3088 14.9602 17.1042 15.8239 17.1156 17.0114H13.0133Z" fill="#111827"/>
<path d="M27.5649 15.7784C27.2809 14.3011 26.099 13.358 24.0536 13.358C21.9513 13.358 20.5195 14.392 20.5252 16.0057C20.5195 17.2784 21.3036 18.1193 22.9797 18.4659L24.4684 18.7784C25.2695 18.9545 25.6445 19.2784 25.6445 19.7727C25.6445 20.3693 24.9968 20.8182 24.0195 20.8182C23.0763 20.8182 22.4627 20.4091 22.2865 19.625L20.2809 19.8182C20.5365 21.4205 21.8831 22.3693 24.0252 22.3693C26.207 22.3693 27.7468 21.2386 27.7524 19.5852C27.7468 18.3409 26.9456 17.5795 25.2979 17.2216L23.8093 16.9034C22.9229 16.7045 22.5706 16.3977 22.5763 15.892C22.5706 15.3011 23.224 14.892 24.082 14.892C25.0309 14.892 25.5309 15.4091 25.6899 15.983L27.5649 15.7784Z" fill="#111827"/>
<path d="M29.2885 22.1989H31.3453V13.4716H29.2885V22.1989ZM30.3226 12.233C30.976 12.233 31.5101 11.733 31.5101 11.1193C31.5101 10.5 30.976 10 30.3226 10C29.6635 10 29.1294 10.5 29.1294 11.1193C29.1294 11.733 29.6635 12.233 30.3226 12.233Z" fill="#111827"/>
<path d="M37.0958 25.6534C39.4538 25.6534 41.1924 24.5739 41.1924 22.3409V13.4716H39.164V14.9148H39.0503C38.7378 14.2841 38.0844 13.358 36.5447 13.358C34.5276 13.358 32.9424 14.9375 32.9424 17.8068C32.9424 20.6534 34.5276 22.0739 36.539 22.0739C38.0333 22.0739 38.7322 21.2727 39.0503 20.6307H39.1526V22.2841C39.1526 23.5682 38.3003 24.0966 37.1299 24.0966C35.8913 24.0966 35.3458 23.5114 35.0958 23L33.2435 23.4489C33.6185 24.6705 34.8742 25.6534 37.0958 25.6534ZM37.1128 20.4602C35.7549 20.4602 35.039 19.4034 35.039 17.7955C35.039 16.2102 35.7435 15.0455 37.1128 15.0455C38.4367 15.0455 39.164 16.142 39.164 17.7955C39.164 19.4602 38.4253 20.4602 37.1128 20.4602Z" fill="#111827"/>
<path d="M45.1972 17.0852C45.1972 15.8239 45.9585 15.0966 47.0438 15.0966C48.1063 15.0966 48.7426 15.7955 48.7426 16.9602V22.1989H50.7994V16.642C50.8051 14.5511 49.6119 13.358 47.8108 13.358C46.504 13.358 45.6063 13.983 45.2085 14.9545H45.1063V13.4716H43.1403V22.1989H45.1972V17.0852Z" fill="#111827"/>
<path d="M56.594 22.3693C58.6281 22.3693 60.0258 21.375 60.3894 19.858L58.469 19.642C58.1906 20.3807 57.5088 20.767 56.6224 20.767C55.2928 20.767 54.4122 19.892 54.3951 18.3977H60.4747V17.767C60.4747 14.7045 58.6338 13.358 56.486 13.358C53.986 13.358 52.3553 15.1932 52.3553 17.8864C52.3553 20.625 53.9633 22.3693 56.594 22.3693ZM54.4008 17.0114C54.4633 15.8977 55.2872 14.9602 56.5144 14.9602C57.6963 14.9602 58.4917 15.8239 58.5031 17.0114H54.4008Z" fill="#111827"/>
<path d="M62.0547 22.1989H64.1115V17.0682C64.1115 15.9602 64.9468 15.1761 66.0774 15.1761C66.424 15.1761 66.8559 15.2386 67.032 15.2955V13.4034C66.8445 13.3693 66.5206 13.3466 66.2934 13.3466C65.2934 13.3466 64.4581 13.9148 64.1399 14.9261H64.049V13.4716H62.0547V22.1989Z" fill="#111827"/>
<path d="M75.1362 15.7784C74.8521 14.3011 73.6703 13.358 71.6248 13.358C69.5226 13.358 68.0907 14.392 68.0964 16.0057C68.0907 17.2784 68.8748 18.1193 70.551 18.4659L72.0396 18.7784C72.8407 18.9545 73.2157 19.2784 73.2157 19.7727C73.2157 20.3693 72.568 20.8182 71.5907 20.8182C70.6476 20.8182 70.0339 20.4091 69.8578 19.625L67.8521 19.8182C68.1078 21.4205 69.4544 22.3693 71.5964 22.3693C73.7782 22.3693 75.318 21.2386 75.3237 19.5852C75.318 18.3409 74.5169 17.5795 72.8691 17.2216L71.3805 16.9034C70.4942 16.7045 70.1419 16.3977 70.1476 15.892C70.1419 15.3011 70.7953 14.892 71.6532 14.892C72.6021 14.892 73.1021 15.4091 73.2612 15.983L75.1362 15.7784Z" fill="#111827"/>
<path d="M78.9165 17.0852C78.9165 15.8239 79.7006 15.0966 80.8029 15.0966C81.8824 15.0966 82.5188 15.7841 82.5188 16.9602V22.1989H84.5756V16.642C84.5756 14.5341 83.3824 13.358 81.5699 13.358C80.229 13.358 79.3768 13.9659 78.9734 14.9545H78.8711V10.5625H76.8597V22.1989H78.9165V17.0852Z" fill="#111827"/>
<path d="M86.5122 22.1989H88.569V13.4716H86.5122V22.1989ZM87.5463 12.233C88.1997 12.233 88.7338 11.733 88.7338 11.1193C88.7338 10.5 88.1997 10 87.5463 10C86.8872 10 86.3531 10.5 86.3531 11.1193C86.3531 11.733 86.8872 12.233 87.5463 12.233Z" fill="#111827"/>
<path d="M90.5241 25.4716H92.5809V20.8239H92.6661C92.99 21.4602 93.6661 22.3523 95.1661 22.3523C97.223 22.3523 98.7627 20.7216 98.7627 17.8466C98.7627 14.9375 97.1775 13.358 95.1605 13.358C93.6207 13.358 92.9786 14.2841 92.6661 14.9148H92.5468V13.4716H90.5241V25.4716ZM92.5411 17.8352C92.5411 16.142 93.2684 15.0455 94.5923 15.0455C95.9616 15.0455 96.6661 16.2102 96.6661 17.8352C96.6661 19.4716 95.9502 20.6648 94.5923 20.6648C93.2798 20.6648 92.5411 19.5284 92.5411 17.8352Z" fill="#111827"/>
</g>
</g>
</svg>
